<?xml version="1.0" standalone="no"?>
<!DOCTYPE svg PUBLIC "-//W3C//DTD SVG 20010904//EN"
 "http://www.w3.org/TR/2001/REC-SVG-20010904/DTD/svg10.dtd">
<svg version="1.0" xmlns="http://www.w3.org/2000/svg"
 width="840.000000pt" height="880.000000pt" viewBox="0 0 840.000000 880.000000"
 preserveAspectRatio="xMidYMid meet">

<g transform="translate(0.000000,880.000000) scale(0.100000,-0.100000)"
fill="#000000" stroke="none">
<path d="M3965 8390 c-380 -26 -725 -95 -1061 -211 -1466 -506 -2507 -1807
-2674 -3339 -47 -430 -31 -799 50 -1216 248 -1263 1107 -2342 2284 -2869 929
-416 1978 -464 2932 -134 1466 506 2507 1807 2674 3339 47 430 31 799 -50
1216 -248 1263 -1107 2342 -2284 2869 -588 263 -1258 386 -1871 345z m-225
-927 l24 -137 -30 -20 c-57 -40 -114 -103 -114 -126 0 -21 1 -21 35 9 20 17
58 42 84 56 l49 24 6 -22 c12 -47 6 -62 -38 -90 -58 -37 -154 -140 -188 -202
-52 -96 -79 -201 -85 -320 -15 -302 87 -553 270 -663 l54 -33 34 20 c19 10 72
32 119 47 78 25 98 28 240 28 143 0 162 -2 240 -28 47 -15 99 -37 117 -48 29
-17 35 -18 61 -4 106 55 209 185 254 321 51 155 61 376 23 520 -37 140 -144
295 -250 362 -35 22 -45 34 -45 55 0 54 8 60 49 38 21 -10 59 -35 84 -54 43
-33 47 -34 47 -15 0 22 -59 86 -115 125 l-29 21 23 134 c13 74 25 136 27 138
13 14 245 -240 310 -338 l29 -45 3 29 c5 42 -24 110 -89 208 -32 48 -55 87
-50 87 12 0 202 -199 258 -270 197 -252 357 -593 429 -914 30 -132 54 -295 57
-390 2 -62 -2 -77 -26 -118 -28 -48 -24 -58 14 -38 88 48 -122 -231 -441 -585
-74 -82 -217 -234 -318 -336 l-182 -186 -36 -112 c-30 -96 -34 -122 -32 -194
l3 -82 24 85 c16 61 43 119 93 203 39 64 74 117 79 117 5 0 9 -54 9 -120 l0
-120 -60 -115 c-52 -101 -182 -315 -224 -370 -14 -18 -15 14 -16 338 l0 359
217 236 c120 131 289 316 377 412 88 96 178 195 200 219 23 24 34 40 26 36
-24 -14 -375 -310 -511 -432 -70 -62 -131 -113 -136 -113 -9 0 -24 16 -62 63
-12 16 -2 30 106 140 170 174 285 330 373 505 42 85 90 222 90 257 0 5 -28
-42 -63 -106 -120 -222 -270 -424 -409 -555 -35 -32 -124 -111 -198 -176 -184
-159 -218 -195 -222 -238 l-3 -35 -107 -3 -108 -3 0 38 c0 34 -7 46 -67 104
-38 36 -129 118 -203 182 -208 178 -304 283 -432 478 -42 62 -101 161 -132
219 -31 58 -56 100 -56 95 0 -34 48 -174 89 -255 90 -181 208 -341 383 -517
l111 -112 -34 -40 c-19 -22 -39 -39 -46 -38 -6 1 -65 50 -130 108 -129 115
-502 431 -524 444 -8 4 2 -10 22 -31 20 -21 210 -229 423 -461 l386 -422 0
-356 c0 -208 -4 -354 -9 -351 -17 11 -174 270 -233 383 l-58 113 0 127 c0 78
4 123 9 117 5 -5 40 -58 77 -119 48 -79 74 -133 90 -194 13 -46 26 -86 29 -89
3 -3 5 33 5 79 0 70 -6 103 -36 194 l-37 110 -156 159 c-86 87 -161 163 -166
170 -6 6 -65 70 -131 142 -207 225 -418 480 -488 593 l-28 44 36 -7 35 -7 -30
58 -30 59 11 109 c54 553 273 1042 628 1408 111 113 147 138 88 60 -76 -101
-122 -202 -114 -252 2 -20 10 -13 50 45 26 38 87 112 135 164 48 52 99 107
112 123 14 15 30 27 37 27 6 0 21 -57 34 -137z m-2688 -3970 l3 -128 163 -3
162 -2 0 130 0 130 45 0 45 0 -2 -317 -3 -318 -42 -3 -43 -3 0 150 0 151 -165
0 -165 0 0 -151 0 -150 -42 3 -43 3 -3 305 c-1 168 0 310 3 317 2 8 21 13 44
13 l40 0 3 -127z m1316 85 l-3 -43 -222 -3 -223 -2 0 45 0 45 226 0 225 0 -3
-42z m522 -279 l0 -320 -42 3 -43 3 -3 318 -2 317 45 0 45 0 0 -321z m669 64
c46 -142 86 -251 89 -243 3 8 42 123 87 255 l82 240 64 0 64 0 0 -315 0 -315
-42 -3 -43 -3 -2 248 c-3 287 9 292 -105 -42 l-68 -200 -43 0 -44 0 -81 245
-82 245 -5 -245 -5 -245 -37 -3 -38 -3 0 320 0 321 63 0 63 0 83 -257z m1169
245 c65 -16 143 -94 163 -163 20 -72 18 -217 -5 -284 -22 -63 -73 -124 -130
-154 -37 -20 -56 -22 -201 -22 l-160 0 -3 318 -2 317 145 0 c81 0 167 -5 193
-12z m878 -28 c65 -170 214 -579 214 -589 0 -8 -14 -11 -47 -9 l-48 3 -38 110
c-123 350 -142 405 -147 405 -3 0 -46 -116 -96 -258 l-92 -257 -46 -3 c-27 -2
-46 1 -46 7 0 10 43 129 172 476 23 61 45 120 49 133 8 21 14 23 60 20 48 -3
52 -5 65 -38z m684 -235 l0 -274 158 -3 157 -3 0 -40 0 -40 -200 0 -200 0 -3
318 -2 317 45 0 45 0 0 -275z m790 0 l0 -274 158 -3 157 -3 0 -40 0 -40 -200
0 -200 0 -3 305 c-1 168 0 310 3 317 2 8 21 13 45 13 l40 0 0 -275z m-4740
-35 l0 -40 -165 0 -165 0 0 -100 0 -100 186 0 185 0 -3 -42 -3 -43 -227 -3
-228 -2 0 185 0 185 210 0 210 0 0 -40z m243 -532 c27 -14 46 -38 47 -58 0 -9
-11 -1 -26 18 -45 57 -132 38 -150 -33 -9 -36 2 -94 22 -116 39 -43 111 -29
136 27 13 29 28 32 21 4 -10 -37 -53 -70 -93 -70 -76 0 -126 79 -101 160 19
65 89 98 144 68z m1135 -2 c47 -24 68 -85 52 -145 -32 -119 -194 -104 -207 19
-10 102 73 169 155 126z m1565 3 c25 -14 37 -28 37 -48 0 -8 -9 -2 -21 13 -15
20 -29 26 -58 26 -42 0 -61 -14 -61 -46 0 -22 23 -35 85 -49 98 -22 82 -125
-20 -125 -51 0 -86 25 -84 63 1 21 1 20 10 -4 24 -65 139 -62 139 3 0 30 -9
36 -87 57 -47 13 -68 40 -59 75 10 39 75 58 119 35z m1058 -15 c31 -28 44 -87
30 -133 -32 -107 -170 -109 -202 -3 -16 56 3 117 44 143 38 24 98 20 128 -7z
m-5208 -76 c19 -51 38 -101 42 -110 4 -10 3 -18 -2 -18 -5 0 -15 16 -22 35
-12 34 -14 35 -66 35 -52 0 -54 -1 -65 -35 -6 -19 -16 -35 -22 -35 -5 0 -8 4
-6 9 64 165 85 211 94 211 6 0 27 -42 47 -92z m341 76 c19 -18 21 -75 4 -92
-7 -7 -38 -12 -70 -12 l-58 0 0 -37 c0 -21 -5 -45 -10 -53 -7 -10 -10 21 -10
98 l0 112 64 0 c45 0 69 -5 80 -16z m320 0 c19 -18 21 -75 4 -92 -7 -7 -38
-12 -70 -12 l-58 0 0 -37 c0 -21 -5 -45 -10 -53 -7 -10 -10 21 -10 98 l0 112
64 0 c45 0 69 -5 80 -16z m196 -89 l0 -105 60 0 c35 0 60 -4 60 -10 0 -7 -25
-10 -67 -8 l-68 3 -3 113 c-2 72 1 112 8 112 6 0 10 -39 10 -105z m277 -62
c-2 -32 -3 -6 -3 57 0 63 1 89 3 58 2 -32 2 -84 0 -115z m659 54 c23 -59 38
-107 33 -107 -5 0 -15 16 -23 35 -14 34 -17 35 -66 35 -49 0 -52 -1 -67 -37
-9 -21 -18 -33 -20 -27 -6 18 79 215 90 211 6 -2 30 -51 53 -110z m277 106
l-43 -4 -2 -107 -2 -107 -5 105 -6 105 -40 6 c-26 4 -7 6 50 6 50 0 71 -2 48
-4z m194 -160 c-2 -32 -3 -6 -3 57 0 63 1 89 3 58 2 -32 2 -84 0 -115z m633
68 l65 -93 3 96 c1 53 7 96 12 96 13 0 13 -217 1 -225 -5 -3 -41 41 -80 97
l-71 102 0 -97 c0 -58 -4 -97 -10 -97 -6 0 -10 44 -10 111 0 84 3 110 13 107
6 -3 41 -46 77 -97z m621 70 c23 -24 29 -38 29 -75 0 -87 -34 -120 -123 -121
l-52 0 -3 113 -3 112 61 0 c55 0 65 -3 91 -29z m318 -76 c45 -114 45 -115 33
-115 -4 0 -14 16 -21 35 -12 34 -14 35 -62 35 -47 0 -50 -2 -66 -35 -15 -32
-42 -52 -30 -22 3 6 17 41 32 77 15 36 33 80 40 98 8 17 18 32 23 32 5 0 28
-47 51 -105z m541 49 l0 -44 69 0 70 0 4 53 c2 28 3 0 4 -63 0 -77 -2 -97 -6
-60 l-6 55 -67 3 -68 3 0 -43 c0 -24 -5 -50 -10 -58 -7 -10 -10 21 -10 98 0
73 4 111 10 107 6 -3 10 -26 10 -51z m472 39 c22 -19 24 -56 3 -73 -12 -10
-11 -16 6 -40 19 -25 20 -31 8 -56 -16 -31 -59 -47 -117 -42 l-37 3 -3 113 -3
112 62 0 c44 0 68 -5 81 -17z m674 -96 c23 -59 38 -107 33 -107 -5 0 -15 16
-23 35 -14 33 -17 35 -65 35 -49 0 -51 -1 -67 -37 -9 -21 -18 -33 -21 -27 -6
17 78 215 90 211 6 -2 30 -51 53 -110z m338 97 c20 -20 21 -62 1 -84 -14 -15
-14 -18 0 -30 17 -14 22 -95 5 -85 -5 3 -10 21 -10 39 0 45 -16 56 -77 56
l-53 0 0 -50 c0 -27 -4 -50 -10 -50 -11 0 -14 202 -3 213 14 15 131 7 147 -9z
m337 -13 c24 -25 29 -37 29 -80 0 -41 -5 -56 -28 -82 -25 -28 -34 -32 -88 -33
l-59 -1 -3 113 -3 112 61 0 c55 0 65 -3 91 -29z"/>
<path d="M4577 5717 c-35 -186 -123 -313 -294 -424 l-84 -55 -82 54 c-169 110
-249 223 -291 410 l-23 102 -6 -54 c-3 -30 -3 -90 -1 -132 3 -54 1 -78 -7 -78
-6 0 -67 56 -135 124 -68 68 -124 120 -124 115 0 -4 28 -50 62 -101 72 -107
198 -242 313 -335 97 -78 279 -203 295 -203 7 0 56 30 109 66 229 158 395 316
501 476 33 51 60 95 60 99 0 4 -56 -48 -124 -117 -67 -68 -128 -124 -134 -124
-8 0 -12 44 -14 134 l-3 135 -18 -92z"/>
<path d="M4480 3305 l0 -235 100 0 c112 0 141 10 184 60 36 43 49 101 44 202
-3 73 -8 92 -32 128 -40 60 -89 80 -203 80 l-93 0 0 -235z"/>
<path d="M3605 2745 c-20 -19 -25 -34 -25 -75 0 -44 5 -56 29 -81 82 -81 192
32 136 140 -16 33 -33 41 -81 41 -24 0 -43 -8 -59 -25z"/>
<path d="M6210 2750 c-25 -25 -34 -61 -27 -107 8 -47 33 -72 80 -80 31 -5 40
-1 67 25 24 24 30 39 30 72 0 46 -21 94 -45 104 -34 13 -85 6 -105 -14z"/>
<path d="M1061 2701 c-11 -27 -21 -52 -21 -55 0 -3 21 -6 46 -6 42 0 45 1 38
23 -11 36 -33 87 -37 87 -3 0 -14 -22 -26 -49z"/>
<path d="M1350 2720 l0 -50 49 0 c53 0 81 17 81 49 0 31 -33 51 -83 51 l-47 0
0 -50z"/>
<path d="M1670 2720 l0 -50 49 0 c53 0 81 17 81 49 0 31 -33 51 -83 51 l-47 0
0 -50z"/>
<path d="M2856 2726 c-35 -82 -34 -86 18 -86 l46 0 -19 48 c-10 26 -20 54 -23
62 -3 10 -11 1 -22 -24z"/>
<path d="M4520 2670 l0 -100 48 0 c67 0 97 31 97 102 0 65 -33 98 -101 98
l-44 0 0 -100z"/>
<path d="M4892 2698 l-20 -53 40 -3 c22 -2 42 -1 45 2 6 6 -27 95 -38 101 -4
3 -16 -18 -27 -47z"/>
<path d="M5850 2725 l0 -45 53 0 c57 0 77 12 77 45 0 33 -20 45 -77 45 l-53 0
0 -45z"/>
<path d="M5857 2663 c-4 -3 -7 -26 -7 -50 l0 -43 54 0 c61 0 89 18 84 53 -2
12 -14 27 -28 34 -27 14 -92 17 -103 6z"/>
<path d="M6591 2735 c-7 -16 -17 -43 -23 -58 -14 -35 -9 -39 40 -35 l39 3 -23
60 -22 60 -11 -30z"/>
<path d="M6860 2720 l0 -50 55 0 c47 0 57 3 71 25 15 23 15 27 0 50 -14 22
-24 25 -71 25 l-55 0 0 -50z"/>
<path d="M7200 2670 l0 -100 44 0 c68 0 100 32 100 100 0 68 -32 100 -100 100
l-44 0 0 -100z"/>
</g>
</svg>
