<?xml version="1.0" standalone="no"?>
<!DOCTYPE svg PUBLIC "-//W3C//DTD SVG 20010904//EN"
 "http://www.w3.org/TR/2001/REC-SVG-20010904/DTD/svg10.dtd">
<svg version="1.0" xmlns="http://www.w3.org/2000/svg"
 width="1200.000000pt" height="1767.000000pt" viewBox="0 0 1200.000000 1767.000000"
 preserveAspectRatio="xMidYMid meet">

<g transform="translate(0.000000,1767.000000) scale(0.100000,-0.100000)"
fill="#000000" stroke="none">
<path d="M5795 12003 c-550 -49 -1062 -256 -1492 -602 -146 -117 -3578 -3547
-3684 -3681 -322 -409 -532 -894 -601 -1395 -16 -119 -16 -502 0 -635 62 -489
237 -924 536 -1328 65 -89 389 -417 1885 -1913 1592 -1592 1820 -1817 1928
-1897 430 -320 946 -511 1462 -541 467 -27 935 63 1346 258 195 93 408 229
566 362 87 72 3394 3363 3536 3518 349 381 577 822 684 1327 31 145 32 157 36
464 5 338 0 418 -44 625 -86 410 -274 811 -539 1145 -37 47 -871 889 -1853
1871 -1534 1534 -1802 1798 -1901 1871 -165 123 -274 189 -455 278 -309 152
-596 235 -925 270 -89 9 -395 11 -485 3z m2535 -2723 c-42 -419 -148 -762
-445 -1445 -367 -842 -466 -1146 -510 -1564 -19 -174 -19 -277 0 -428 78 -626
310 -1137 691 -1518 383 -384 917 -610 1494 -634 l165 -6 -115 -8 c-214 -14
-509 19 -785 88 -280 71 -528 164 -1094 410 -525 228 -771 320 -1041 389 -279
71 -583 105 -765 86 -579 -62 -1047 -239 -1425 -540 -105 -83 -285 -268 -363
-372 -264 -353 -426 -803 -444 -1238 -7 -151 -21 -167 -22 -24 -2 206 34 482
95 719 70 278 158 513 404 1080 229 527 313 750 380 1000 139 521 134 906 -20
1425 -86 289 -246 595 -427 820 -83 103 -271 284 -371 358 -236 175 -497 300
-775 371 -150 39 -279 59 -477 76 l-165 14 235 -4 c252 -3 351 -15 574 -65
178 -41 370 -100 571 -177 155 -60 267 -107 795 -335 569 -246 941 -354 1335
-388 77 -7 180 -10 229 -6 236 16 531 77 761 156 156 53 412 179 545 268 455
303 766 746 905 1286 33 129 63 311 67 404 1 38 3 35 6 -18 2 -36 -2 -117 -8
-180z m-4643 -6977 c-3 -10 -5 -4 -5 12 0 17 2 24 5 18 2 -7 2 -21 0 -30z
m298 -1133 c9 -16 13 -30 11 -30 -3 0 -12 14 -21 30 -9 17 -13 30 -11 30 3 0
12 -13 21 -30z m45 -80 c6 -11 8 -20 6 -20 -3 0 -10 9 -16 20 -6 11 -8 20 -6
20 3 0 10 -9 16 -20z m64 -100 c25 -38 44 -70 41 -70 -2 0 -22 26 -43 58 -47
70 -54 82 -49 82 2 0 25 -31 51 -70z m67 -97 c13 -16 12 -17 -3 -4 -17 13 -22
21 -14 21 2 0 10 -8 17 -17z m34 -43 c10 -11 16 -20 13 -20 -3 0 -13 9 -23 20
-10 11 -16 20 -13 20 3 0 13 -9 23 -20z m46 -57 c13 -16 12 -17 -3 -4 -17 13
-22 21 -14 21 2 0 10 -8 17 -17z"/>
</g>
</svg>
