<?xml version="1.0" standalone="no"?>
<!DOCTYPE svg PUBLIC "-//W3C//DTD SVG 20010904//EN"
 "http://www.w3.org/TR/2001/REC-SVG-20010904/DTD/svg10.dtd">
<svg version="1.0" xmlns="http://www.w3.org/2000/svg"
 width="1280.000000pt" height="1010.000000pt" viewBox="0 0 1280.000000 1010.000000"
 preserveAspectRatio="xMidYMid meet">

<g transform="translate(0.000000,1010.000000) scale(0.100000,-0.100000)"
fill="#000000" stroke="none">
<path d="M4348 10084 c-207 -32 -423 -134 -582 -276 l-48 -43 1337 -1470 c735
-808 1341 -1470 1345 -1470 4 0 610 661 1345 1470 l1337 1470 -48 44 c-322
291 -806 370 -1205 197 -223 -96 -265 -135 -883 -814 -296 -326 -542 -592
-546 -592 -4 0 -242 255 -528 568 -286 312 -550 597 -588 633 -245 234 -588
338 -936 283z"/>
<path d="M5056 4888 l-1339 -1473 49 -43 c348 -309 845 -377 1259 -172 194 96
225 126 822 781 300 330 549 599 553 599 5 0 244 -258 533 -572 288 -315 553
-600 589 -634 414 -387 1077 -388 1512 -2 l49 43 -1337 1470 c-735 809 -1340
1471 -1344 1472 -4 2 -609 -660 -1346 -1469z"/>
<path d="M61 1504 c-64 -54 -61 -14 -61 -794 0 -670 1 -710 18 -710 40 1 133
29 174 53 95 55 170 168 184 273 l6 53 422 3 c413 3 422 4 479 27 109 43 186
121 227 228 20 51 23 83 28 258 8 319 -16 424 -118 525 -27 28 -76 63 -108 78
l-57 27 -581 3 -582 3 -31 -27z m1061 -382 c22 -22 23 -29 23 -188 l0 -166
-28 -24 -28 -24 -355 0 -354 0 0 215 0 216 360 -3 c359 -3 359 -3 382 -26z"/>
<path d="M1823 1511 c-66 -41 -63 -6 -63 -797 l0 -717 43 7 c116 18 206 74
269 166 45 65 68 149 68 242 l0 68 218 0 219 0 123 -175 c126 -180 171 -230
237 -263 93 -47 228 -53 313 -15 l39 18 -155 220 -154 219 37 11 c127 38 225
142 259 274 13 51 15 102 12 265 -4 180 -6 207 -27 258 -30 76 -108 161 -185
201 l-61 32 -580 3 c-562 2 -581 2 -612 -17z m1032 -375 c41 -17 55 -58 55
-159 0 -75 -18 -130 -48 -146 -14 -7 -139 -11 -371 -11 l-351 0 0 165 0 165
340 0 c272 0 348 -3 375 -14z"/>
<path d="M3771 1515 c-56 -18 -138 -74 -174 -120 -16 -20 -40 -61 -55 -93
l-27 -57 0 -480 0 -480 33 -67 c40 -82 119 -157 200 -190 57 -23 59 -23 527
-23 l470 0 60 24 c82 33 173 124 206 206 l24 60 0 475 0 475 -31 65 c-38 79
-109 151 -184 188 l-55 27 -475 2 c-382 2 -484 -1 -519 -12z m833 -379 c53
-22 56 -45 56 -373 0 -338 -3 -355 -67 -372 -53 -15 -600 -15 -643 0 -56 20
-60 42 -60 374 0 319 5 356 52 375 13 5 159 9 326 9 237 1 310 -2 336 -13z"/>
<path d="M5387 1506 c-31 -13 -73 -36 -93 -51 -35 -26 -35 -27 -17 -47 10 -12
145 -161 301 -332 l282 -310 -43 -46 c-24 -25 -159 -172 -301 -327 l-257 -283
28 -25 c103 -91 267 -109 395 -42 61 32 90 61 359 355 l76 84 181 -199 c122
-134 199 -209 234 -230 104 -63 232 -68 344 -13 33 16 69 39 79 50 18 20 18
21 -2 43 -11 12 -145 159 -297 326 -152 167 -275 308 -274 312 2 4 135 152
297 329 l293 321 -23 25 c-12 13 -48 37 -78 52 -50 24 -67 27 -156 27 -95 0
-103 -2 -164 -35 -54 -29 -94 -67 -249 -238 -102 -111 -188 -199 -192 -195
-107 123 -364 393 -393 414 -86 63 -226 77 -330 35z"/>
<path d="M7263 1510 c-66 -40 -63 -5 -63 -796 l0 -717 43 7 c147 23 253 106
312 244 19 44 20 76 25 472 l5 425 25 0 c23 0 40 -33 245 -484 142 -312 228
-490 244 -502 32 -26 84 -24 115 4 16 14 100 188 237 492 116 259 216 476 222
483 16 20 46 14 52 -10 3 -13 6 -207 7 -433 l3 -410 26 -56 c50 -106 143 -185
254 -214 32 -8 67 -15 77 -15 17 0 18 34 18 711 0 787 2 760 -64 800 -27 17
-53 19 -213 19 -208 0 -254 -11 -341 -80 -67 -52 -93 -98 -222 -383 -62 -136
-115 -245 -118 -242 -3 2 -56 118 -119 257 -123 273 -163 337 -242 387 -82 53
-124 61 -320 61 -157 0 -179 -2 -208 -20z"/>
<path d="M9579 1506 c-31 -12 -70 -32 -86 -44 -76 -54 -134 -149 -152 -247
-14 -73 -15 -806 -1 -888 21 -132 98 -233 218 -290 l67 -32 475 0 475 0 67 32
c122 58 197 161 218 300 8 47 10 216 8 480 -3 399 -4 409 -27 466 -43 109
-121 187 -226 226 -54 20 -74 21 -518 21 -459 0 -462 -1 -518 -24z m877 -389
l24 -28 0 -317 c0 -235 -4 -323 -13 -342 -22 -44 -60 -49 -370 -49 -306 -1
-343 4 -366 47 -7 14 -11 130 -11 339 0 343 1 352 54 373 11 5 164 8 339 7
l319 -2 24 -28z"/>
<path d="M11223 1511 c-54 -20 -100 -48 -122 -75 -11 -13 34 -67 284 -341 297
-326 297 -326 279 -348 -16 -17 -464 -513 -552 -609 -25 -27 -25 -28 -7 -48
10 -11 48 -35 84 -53 60 -29 74 -32 156 -31 75 0 99 4 145 26 69 32 100 61
296 276 150 167 157 173 174 155 10 -10 87 -94 172 -188 191 -209 190 -208
262 -241 127 -58 275 -37 384 56 l23 19 -207 228 c-115 125 -250 273 -301 329
l-92 101 299 329 c340 373 321 337 203 396 -118 58 -263 48 -364 -24 -37 -26
-162 -158 -389 -411 -4 -4 -91 84 -193 196 -224 246 -258 269 -397 274 -66 3
-97 -1 -137 -16z"/>
</g>
</svg>
